<!--?xml version="1.0" encoding="UTF-8" standalone="no"?-->
<svg xmlns:dc="http://purl.org/dc/elements/1.1/" xmlns:cc="http://creativecommons.org/ns#" xmlns:rdf="http://www.w3.org/1999/02/22-rdf-syntax-ns#" xmlns:svg="http://www.w3.org/2000/svg" xmlns="http://www.w3.org/2000/svg" id="svg199717" viewBox="0 0 1024 768" height="768px" width="1024px" version="1.1">
  <metadata id="metadata199723">
    <rdf:rdf>
      <cc:work rdf:about="">
        <dc:format>image/svg+xml</dc:format>
        <dc:type rdf:resource="http://purl.org/dc/dcmitype/StillImage"></dc:type>
      </cc:work>
    </rdf:rdf>
  </metadata>
  <defs id="defs199721"></defs>
  <g id="logo-group">
    <g id="title" style="font-style:normal;font-weight:700;font-size:72px;line-height:1;font-family:'Comfortaa Bold Alt1';font-variant-ligatures:none;text-align:center;text-anchor:middle" aria-label="log mapping">
      <path id="path199725" style="font-style: normal; font-weight: 700; font-size: 72px; line-height: 1; font-family: &quot;Comfortaa Bold Alt1&quot;; font-variant-ligatures: none; text-align: center; text-anchor: middle; fill: rgb(79, 79, 79);" d="m 280.60269,64.776 c -0.72,0.72 -1.008,1.584 -1.008,2.592 v 39.312 c 0,2.592 0.432,4.896 1.368,6.912 0.864,2.016 2.16,3.6 3.816,4.752 1.656,1.152 3.528,1.656 5.616,1.656 h 0.144 c 1.44,0 2.592,-0.288 3.528,-1.008 0.864,-0.648 1.368,-1.512 1.368,-2.592 0,-1.008 -0.36,-1.872 -0.936,-2.592 -0.576,-0.648 -1.368,-1.008 -2.304,-1.008 h -1.8 c -1.08,0 -1.944,-0.576 -2.592,-1.728 -0.72,-1.152 -1.008,-2.592 -1.008,-4.392 V 67.368 c 0,-1.008 -0.36,-1.872 -1.008,-2.592 -0.72,-0.648 -1.584,-1.008 -2.592,-1.008 -1.08,0 -1.944,0.36 -2.592,1.008 z" transform="translate(0 283.04981818181807) translate(239.1225590909089 44.202909090909145) scale(0.90909090909091) translate(-279.59469 -63.768)"></path>
      <path id="path199727" style="font-style: normal; font-weight: 700; font-size: 72px; line-height: 1; font-family: &quot;Comfortaa Bold Alt1&quot;; font-variant-ligatures: none; text-align: center; text-anchor: middle; fill: rgb(79, 79, 79);" d="m 328.58956,82.92 c -3.024,-1.728 -6.408,-2.592 -10.152,-2.592 -3.888,0 -7.272,0.864 -10.296,2.592 -3.024,1.728 -5.4,4.032 -7.056,7.056 -1.728,3.024 -2.52,6.48 -2.52,10.368 0,3.888 0.792,7.272 2.52,10.296 1.656,3.024 4.032,5.4 7.056,7.128 3.024,1.728 6.408,2.52 10.296,2.52 3.816,0 7.2,-0.792 10.224,-2.52 3.024,-1.728 5.328,-4.104 7.056,-7.128 1.656,-3.024 2.52,-6.408 2.52,-10.296 0,-3.888 -0.864,-7.344 -2.592,-10.368 -1.728,-3.024 -4.032,-5.328 -7.056,-7.056 z m -16.776,5.616 c 1.944,-1.152 4.176,-1.728 6.624,-1.728 2.448,0 4.608,0.576 6.552,1.728 1.944,1.152 3.456,2.808 4.536,4.824 1.08,2.088 1.656,4.392 1.656,6.984 0,2.592 -0.576,4.968 -1.656,6.984 -1.08,2.016 -2.592,3.6 -4.536,4.752 -1.944,1.152 -4.104,1.728 -6.552,1.728 -2.448,0 -4.68,-0.576 -6.624,-1.728 -1.944,-1.152 -3.456,-2.736 -4.536,-4.752 -1.152,-2.016 -1.656,-4.392 -1.656,-6.984 0,-2.592 0.504,-4.896 1.656,-6.984 1.08,-2.016 2.592,-3.672 4.536,-4.824 z" transform="translate(0 283.04981818181807) translate(270.005168181818 59.25745454545462) scale(0.90909090909091) translate(-298.56556 -80.328)"></path>
      <path id="path199729" style="font-style: normal; font-weight: 700; font-size: 72px; line-height: 1; font-family: &quot;Comfortaa Bold Alt1&quot;; font-variant-ligatures: none; text-align: center; text-anchor: middle; fill: rgb(79, 79, 79);" d="m 377.24581,82.92 c -3.024,-1.728 -6.408,-2.592 -10.152,-2.592 -3.888,0 -7.272,0.864 -10.296,2.592 -3.024,1.728 -5.4,4.032 -7.056,7.056 -1.728,3.024 -2.52,6.48 -2.52,10.368 0,3.888 0.72,7.272 2.304,10.296 1.584,3.024 3.744,5.4 6.552,7.128 2.808,1.728 5.976,2.52 9.576,2.52 3.024,0 5.832,-0.72 8.28,-2.232 2.448,-1.44 4.392,-3.528 5.904,-6.192 v 3.528 c 0,3.024 -0.576,5.688 -1.728,7.848 -1.152,2.16 -2.736,3.816 -4.608,4.968 -1.944,1.152 -4.104,1.656 -6.408,1.656 -2.52,0 -4.752,-0.432 -6.696,-1.296 -2.016,-0.864 -3.6,-2.16 -4.896,-3.888 -0.792,-1.008 -1.8,-1.512 -2.952,-1.512 -0.72,0 -1.368,0.216 -2.016,0.648 -1.008,0.72 -1.512,1.584 -1.512,2.592 0,0.72 0.216,1.368 0.792,2.016 2.016,2.592 4.464,4.536 7.488,5.904 2.952,1.368 6.192,2.016 9.648,2.016 3.816,0 7.272,-0.864 10.296,-2.664 3.024,-1.8 5.4,-4.248 7.128,-7.416 1.656,-3.096 2.52,-6.552 2.52,-10.368 v -15.552 c 0,-3.888 -0.864,-7.344 -2.592,-10.368 -1.728,-3.024 -4.032,-5.328 -7.056,-7.056 z m -3.6,29.16 c -1.944,1.152 -4.104,1.728 -6.552,1.728 -2.448,0 -4.68,-0.576 -6.624,-1.728 -1.944,-1.152 -3.456,-2.736 -4.536,-4.752 -1.152,-2.016 -1.656,-4.392 -1.656,-6.984 0,-2.592 0.504,-4.896 1.656,-6.984 1.08,-2.016 2.592,-3.672 4.536,-4.824 1.944,-1.152 4.176,-1.728 6.624,-1.728 2.448,0 4.608,0.576 6.552,1.728 1.944,1.152 3.456,2.808 4.536,4.824 1.08,2.088 1.656,4.392 1.656,6.984 0,2.592 -0.576,4.968 -1.656,6.984 -1.08,2.016 -2.592,3.6 -4.536,4.752 z" transform="translate(0 283.04981818181807) translate(327.87448636363627 59.25745454545462) scale(0.90909090909091) translate(-347.22181 -80.328)"></path>
      <path id="path199731" style="font-style: normal; font-weight: 700; font-size: 72px; line-height: 1; font-family: &quot;Comfortaa Bold Alt1&quot;; font-variant-ligatures: none; text-align: center; text-anchor: middle; fill: rgb(79, 79, 79);" d="m 470.46781,84.36 c -2.592,-2.736 -5.976,-4.104 -10.08,-4.104 -14.904,0 -22.68,0 -23.4,0 h -0.576 -13.968 c -0.936,0 -1.8,0.36 -2.448,1.008 -0.72,0.72 -1.008,1.512 -1.008,2.448 0,0.072 0,0.216 0,0.36 0,0.144 0,0.216 0,0.288 v 32.04 c 0,1.08 0.288,1.944 1.008,2.664 0.72,0.72 1.584,1.008 2.664,1.008 1.08,0 1.944,-0.288 2.664,-1.008 0.648,-0.72 1.008,-1.584 1.008,-2.664 V 96.096 c 0,-2.664 0.792,-4.824 2.376,-6.624 1.584,-1.728 3.672,-2.592 6.264,-2.592 2.448,0 4.392,0.792 5.832,2.304 1.44,1.512 2.232,3.744 2.232,6.624 V 116.4 c 0,1.08 0.288,1.944 1.008,2.664 0.72,0.72 1.584,1.008 2.664,1.008 1.08,0 1.944,-0.288 2.664,-1.008 0.648,-0.72 1.008,-1.584 1.008,-2.664 V 96.096 c 0,-2.664 0.792,-4.824 2.376,-6.624 1.584,-1.728 3.672,-2.592 6.192,-2.592 2.448,0 4.392,0.792 5.832,2.304 1.44,1.512 2.232,3.744 2.232,6.624 V 116.4 c 0,1.08 0.288,1.944 1.008,2.664 0.72,0.72 1.584,1.008 2.664,1.008 1.08,0 1.944,-0.288 2.664,-1.008 0.648,-0.72 1.008,-1.584 1.008,-2.664 V 95.808 c 0,-4.896 -1.296,-8.712 -3.888,-11.448 z" transform="translate(0 283.04981818181807) translate(406.7526681818182 59.192000000000064) scale(0.90909090909091) translate(-418.98781 -80.256)"></path>
      <path id="path199733" style="font-style: normal; font-weight: 700; font-size: 72px; line-height: 1; font-family: &quot;Comfortaa Bold Alt1&quot;; font-variant-ligatures: none; text-align: center; text-anchor: middle; fill: rgb(79, 79, 79);" d="m 524.14381,100.344 c 0,-3.672 -0.936,-7.128 -2.664,-10.152 -1.728,-3.024 -4.104,-5.472 -7.128,-7.2 -3.024,-1.728 -6.336,-2.664 -10.008,-2.664 -3.744,0 -7.128,0.936 -10.152,2.664 -3.024,1.728 -5.4,4.176 -7.128,7.2 -1.728,3.024 -2.592,6.408 -2.592,10.152 0,3.744 0.792,7.2 2.376,10.224 1.584,3.024 3.816,5.4 6.624,7.128 2.88,1.8 5.976,2.664 9.432,2.664 h 0.576 17.208 c 0.936,0 1.728,-0.36 2.448,-1.008 0.648,-0.648 1.008,-1.44 1.008,-2.448 V 116.4 Z m -30.96,6.912 c -1.152,-2.016 -1.656,-4.32 -1.656,-6.912 0,-2.52 0.504,-4.824 1.656,-6.912 1.152,-2.016 2.664,-3.672 4.608,-4.824 1.944,-1.152 4.104,-1.8 6.552,-1.8 2.376,0 4.536,0.648 6.48,1.8 1.944,1.152 3.456,2.808 4.608,4.824 1.08,2.088 1.656,4.392 1.656,6.912 0,2.592 -0.576,4.896 -1.656,6.912 -1.152,2.016 -2.664,3.672 -4.608,4.824 -1.944,1.152 -4.104,1.728 -6.48,1.728 -2.448,0 -4.608,-0.576 -6.552,-1.728 -1.944,-1.152 -3.456,-2.808 -4.608,-4.824 z" transform="translate(0 283.04981818181807) translate(479.919940909091 59.25745454545462) scale(0.90909090909091) translate(-484.47181 -80.328)"></path>
      <path id="path199735" style="font-style: normal; font-weight: 700; font-size: 72px; line-height: 1; font-family: &quot;Comfortaa Bold Alt1&quot;; font-variant-ligatures: none; text-align: center; text-anchor: middle; fill: rgb(79, 79, 79);" d="m 574.81606,100.344 c 0,-3.744 -0.864,-7.128 -2.592,-10.152 -1.728,-3.024 -4.176,-5.472 -7.2,-7.2 -3.024,-1.728 -6.408,-2.664 -10.08,-2.664 h -0.288 -0.144 -15.912 c -1.008,0 -1.8,0.36 -2.448,1.008 -0.72,0.72 -1.008,1.512 -1.008,2.448 v 15.336 1.224 32.832 c 0,1.152 0.288,2.016 1.008,2.664 0.648,0.72 1.512,1.008 2.664,1.008 1.008,0 1.872,-0.288 2.592,-1.008 0.72,-0.648 1.08,-1.512 1.08,-2.664 v -19.44 c 1.656,2.088 3.672,3.672 6.12,4.824 2.376,1.152 4.968,1.728 7.776,1.728 3.456,0 6.552,-0.864 9.36,-2.592 2.808,-1.728 5.04,-4.104 6.624,-7.128 1.584,-3.024 2.448,-6.48 2.448,-10.224 z m -7.056,0 c 0,2.592 -0.576,4.896 -1.728,6.912 -1.152,2.016 -2.664,3.672 -4.608,4.824 -1.944,1.152 -4.104,1.728 -6.48,1.728 -2.448,0 -4.608,-0.576 -6.552,-1.728 -1.944,-1.152 -3.456,-2.808 -4.536,-4.824 -1.152,-2.016 -1.656,-4.32 -1.656,-6.912 0,-2.52 0.504,-4.824 1.656,-6.912 1.08,-2.016 2.592,-3.672 4.536,-4.824 1.944,-1.152 4.104,-1.8 6.552,-1.8 2.376,0 4.536,0.648 6.48,1.8 1.944,1.152 3.456,2.808 4.608,4.824 1.152,2.088 1.728,4.392 1.728,6.912 z" transform="translate(0 283.04981818181807) translate(539.6219863636364 59.25745454545462) scale(0.90909090909091) translate(-535.14406 -80.328)"></path>
      <path id="path199737" style="font-style: normal; font-weight: 700; font-size: 72px; line-height: 1; font-family: &quot;Comfortaa Bold Alt1&quot;; font-variant-ligatures: none; text-align: center; text-anchor: middle; fill: rgb(79, 79, 79);" d="m 625.44106,100.344 c 0,-3.744 -0.864,-7.128 -2.592,-10.152 -1.728,-3.024 -4.176,-5.472 -7.2,-7.2 -3.024,-1.728 -6.408,-2.664 -10.08,-2.664 h -0.288 -0.144 -15.912 c -1.008,0 -1.8,0.36 -2.448,1.008 -0.72,0.72 -1.008,1.512 -1.008,2.448 v 15.336 1.224 32.832 c 0,1.152 0.288,2.016 1.008,2.664 0.648,0.72 1.512,1.008 2.664,1.008 1.008,0 1.872,-0.288 2.592,-1.008 0.72,-0.648 1.08,-1.512 1.08,-2.664 v -19.44 c 1.656,2.088 3.672,3.672 6.12,4.824 2.376,1.152 4.968,1.728 7.776,1.728 3.456,0 6.552,-0.864 9.36,-2.592 2.808,-1.728 5.04,-4.104 6.624,-7.128 1.584,-3.024 2.448,-6.48 2.448,-10.224 z m -7.056,0 c 0,2.592 -0.576,4.896 -1.728,6.912 -1.152,2.016 -2.664,3.672 -4.608,4.824 -1.944,1.152 -4.104,1.728 -6.48,1.728 -2.448,0 -4.608,-0.576 -6.552,-1.728 -1.944,-1.152 -3.456,-2.808 -4.536,-4.824 -1.152,-2.016 -1.656,-4.32 -1.656,-6.912 0,-2.52 0.504,-4.824 1.656,-6.912 1.08,-2.016 2.592,-3.672 4.536,-4.824 1.944,-1.152 4.104,-1.8 6.552,-1.8 2.376,0 4.536,0.648 6.48,1.8 1.944,1.152 3.456,2.808 4.608,4.824 1.152,2.088 1.728,4.392 1.728,6.912 z" transform="translate(0 283.04981818181807) translate(599.2810772727274 59.25745454545462) scale(0.90909090909091) translate(-585.76906 -80.328)"></path>
      <path id="path199739" style="font-style: normal; font-weight: 700; font-size: 72px; line-height: 1; font-family: &quot;Comfortaa Bold Alt1&quot;; font-variant-ligatures: none; text-align: center; text-anchor: middle; fill: rgb(79, 79, 79);" d="m 638.12206,81.624 c -0.72,0.72 -1.008,1.584 -1.008,2.664 v 32.04 c 0,1.08 0.288,1.944 1.008,2.664 0.72,0.72 1.584,1.008 2.664,1.008 1.08,0 1.944,-0.288 2.664,-1.008 0.648,-0.72 1.008,-1.584 1.008,-2.664 v -32.04 c 0,-1.08 -0.36,-1.944 -1.008,-2.664 -0.72,-0.648 -1.584,-1.008 -2.664,-1.008 -1.08,0 -1.944,0.36 -2.664,1.008 z" transform="translate(0 283.04981818181807) translate(659.5947136363638 59.51927272727279) scale(0.90909090909091) translate(-637.11406 -80.616)"></path>
      <path id="path199741" style="font-style: normal; font-weight: 700; font-size: 72px; line-height: 1; font-family: &quot;Comfortaa Bold Alt1&quot;; font-variant-ligatures: none; text-align: center; text-anchor: middle; fill: rgb(79, 79, 79);" d="m 692.89494,88.752 c -1.512,-2.736 -3.6,-4.896 -6.192,-6.336 -2.52,-1.296 -5.256,-2.016 -8.28,-2.088 -0.072,0 -0.216,-0.072 -0.216,-0.072 h -16.56 c -1.008,0 -1.8,0.36 -2.448,1.008 -0.72,0.72 -1.008,1.512 -1.008,2.448 0,0.072 0,0.216 0,0.288 0,0.144 0,0.216 0,0.288 V 116.4 c 0,1.08 0.288,1.944 1.008,2.664 0.72,0.72 1.584,1.008 2.664,1.008 1.08,0 1.944,-0.288 2.664,-1.008 0.648,-0.72 1.008,-1.584 1.008,-2.664 V 96.096 c 0,-1.728 0.432,-3.24 1.368,-4.68 0.936,-1.368 2.232,-2.448 3.888,-3.312 1.656,-0.792 3.528,-1.224 5.544,-1.224 3.456,0 6.192,1.008 8.28,3.024 2.088,2.016 3.168,4.968 3.168,8.784 V 116.4 c 0,1.08 0.288,1.944 1.008,2.664 0.72,0.72 1.584,1.008 2.664,1.008 1.008,0 1.872,-0.288 2.592,-1.008 0.72,-0.72 1.08,-1.584 1.08,-2.664 V 98.688 c 0,-3.888 -0.792,-7.2 -2.232,-9.936 z" transform="translate(0 283.04981818181807) translate(692.3918772727274 59.192000000000064) scale(0.90909090909091) translate(-658.19094 -80.256)"></path>
      <path id="path199743" style="font-style: normal; font-weight: 700; font-size: 72px; line-height: 1; font-family: &quot;Comfortaa Bold Alt1&quot;; font-variant-ligatures: none; text-align: center; text-anchor: middle; fill: rgb(79, 79, 79);" d="m 735.27706,82.92 c -3.024,-1.728 -6.408,-2.592 -10.152,-2.592 -3.888,0 -7.272,0.864 -10.296,2.592 -3.024,1.728 -5.4,4.032 -7.056,7.056 -1.728,3.024 -2.52,6.48 -2.52,10.368 0,3.888 0.72,7.272 2.304,10.296 1.584,3.024 3.744,5.4 6.552,7.128 2.808,1.728 5.976,2.52 9.576,2.52 3.024,0 5.832,-0.72 8.28,-2.232 2.448,-1.44 4.392,-3.528 5.904,-6.192 v 3.528 c 0,3.024 -0.576,5.688 -1.728,7.848 -1.152,2.16 -2.736,3.816 -4.608,4.968 -1.944,1.152 -4.104,1.656 -6.408,1.656 -2.52,0 -4.752,-0.432 -6.696,-1.296 -2.016,-0.864 -3.6,-2.16 -4.896,-3.888 -0.792,-1.008 -1.8,-1.512 -2.952,-1.512 -0.72,0 -1.368,0.216 -2.016,0.648 -1.008,0.72 -1.512,1.584 -1.512,2.592 0,0.72 0.216,1.368 0.792,2.016 2.016,2.592 4.464,4.536 7.488,5.904 2.952,1.368 6.192,2.016 9.648,2.016 3.816,0 7.272,-0.864 10.296,-2.664 3.024,-1.8 5.4,-4.248 7.128,-7.416 1.656,-3.096 2.52,-6.552 2.52,-10.368 v -15.552 c 0,-3.888 -0.864,-7.344 -2.592,-10.368 -1.728,-3.024 -4.032,-5.328 -7.056,-7.056 z m -3.6,29.16 c -1.944,1.152 -4.104,1.728 -6.552,1.728 -2.448,0 -4.68,-0.576 -6.624,-1.728 -1.944,-1.152 -3.456,-2.736 -4.536,-4.752 -1.152,-2.016 -1.656,-4.392 -1.656,-6.984 0,-2.592 0.504,-4.896 1.656,-6.984 1.08,-2.016 2.592,-3.672 4.536,-4.824 1.944,-1.152 4.176,-1.728 6.624,-1.728 2.448,0 4.608,0.576 6.552,1.728 1.944,1.152 3.456,2.808 4.536,4.824 1.08,2.088 1.656,4.392 1.656,6.984 0,2.592 -0.576,4.968 -1.656,6.984 -1.08,2.016 -2.592,3.6 -4.536,4.752 z" transform="translate(0 283.04981818181807) translate(748.8119863636365 59.25745454545462) scale(0.90909090909091) translate(-705.25306 -80.328)"></path>
    </g>
    <g id="tagline" style="font-style:normal;font-weight:normal;font-size:32px;line-height:1;font-family:Rubik;font-variant-ligatures:none;text-align:center;text-anchor:middle" aria-label="tracking made easy">
      <path id="path199746" style="font-style: normal; font-weight: normal; font-size: 32px; line-height: 1; font-family: Rubik; font-variant-ligatures: none; text-align: center; text-anchor: middle; fill: rgb(255, 255, 255);" d="m 376.08125,250 q -4.96,0 -4.96,-5.6 v -8.576 h -2.528 q -0.32,0 -0.512,-0.192 -0.192,-0.192 -0.192,-0.512 v -1.024 q 0,-0.32 0.192,-0.512 0.192,-0.224 0.512,-0.224 h 2.528 v -5.344 q 0,-0.32 0.192,-0.512 0.192,-0.224 0.512,-0.224 h 1.408 q 0.32,0 0.512,0.224 0.224,0.192 0.224,0.512 v 5.344 h 3.968 q 0.32,0 0.512,0.224 0.224,0.192 0.224,0.512 v 1.024 q 0,0.32 -0.224,0.512 -0.192,0.192 -0.512,0.192 h -3.968 v 8.352 q 0,1.632 0.512,2.464 0.544,0.832 1.824,0.832 h 1.952 q 0.32,0 0.512,0.224 0.192,0.192 0.192,0.512 v 1.056 q 0,0.32 -0.192,0.544 -0.192,0.192 -0.512,0.192 z" transform="translate(0 384.1305454545453) translate(360.6349999999998 29.56218181818204) scale(0.90909090909091) translate(-367.88925 -227.28)"></path>
      <path id="path199748" style="font-style: normal; font-weight: normal; font-size: 32px; line-height: 1; font-family: Rubik; font-variant-ligatures: none; text-align: center; text-anchor: middle; fill: rgb(255, 255, 255);" d="m 382.85475,250 q -0.32,0 -0.544,-0.192 -0.192,-0.224 -0.192,-0.544 v -15.136 q 0,-0.32 0.192,-0.544 0.224,-0.224 0.544,-0.224 h 1.344 q 0.352,0 0.544,0.224 0.224,0.192 0.224,0.544 v 1.408 q 1.312,-2.176 4.448,-2.176 h 1.248 q 0.352,0 0.544,0.192 0.192,0.192 0.192,0.544 v 1.184 q 0,0.32 -0.192,0.544 -0.192,0.192 -0.544,0.192 h -1.824 q -1.76,0 -2.784,1.024 -0.992,1.024 -0.992,2.784 v 9.44 q 0,0.32 -0.224,0.544 -0.224,0.192 -0.544,0.192 z" transform="translate(0 384.1305454545453) translate(376.2981818181816 35.08945454545474) scale(0.90909090909091) translate(-382.11875 -233.36)"></path>
      <path id="path199750" style="font-style: normal; font-weight: normal; font-size: 32px; line-height: 1; font-family: Rubik; font-variant-ligatures: none; text-align: center; text-anchor: middle; fill: rgb(255, 255, 255);" d="m 398.53925,250.32 q -1.568,0 -2.912,-0.64 -1.312,-0.64 -2.112,-1.728 -0.768,-1.12 -0.768,-2.464 0,-2.112 1.728,-3.456 1.728,-1.344 4.704,-1.792 l 4.8,-0.672 v -0.928 q 0,-3.296 -3.808,-3.296 -1.472,0 -2.368,0.608 -0.896,0.576 -1.312,1.376 -0.128,0.32 -0.288,0.448 -0.128,0.096 -0.384,0.096 h -1.248 q -0.288,0 -0.512,-0.192 -0.192,-0.224 -0.192,-0.512 0,-0.736 0.672,-1.696 0.704,-0.992 2.144,-1.696 1.44,-0.736 3.52,-0.736 3.584,0 5.12,1.664 1.568,1.664 1.568,4.16 v 10.4 q 0,0.32 -0.224,0.544 -0.192,0.192 -0.512,0.192 h -1.408 q -0.32,0 -0.512,-0.192 -0.192,-0.224 -0.192,-0.544 v -1.408 q -0.704,1.056 -2.048,1.76 -1.344,0.704 -3.456,0.704 z m 0.64,-2.336 q 2.112,0 3.456,-1.376 1.344,-1.376 1.344,-4 v -0.896 l -3.744,0.544 q -2.304,0.32 -3.488,1.088 -1.184,0.768 -1.184,1.92 0,1.312 1.056,2.016 1.088,0.704 2.56,0.704 z" transform="translate(0 384.1305454545453) translate(388.6877272727271 34.79854545454563) scale(0.90909090909091) translate(-392.74725 -233.04)"></path>
      <path id="path199752" style="font-style: normal; font-weight: normal; font-size: 32px; line-height: 1; font-family: Rubik; font-variant-ligatures: none; text-align: center; text-anchor: middle; fill: rgb(255, 255, 255);" d="m 418.21225,250.32 q -3.424,0 -5.344,-1.92 -1.92,-1.952 -2.016,-5.44 l -0.032,-1.28 0.032,-1.28 q 0.096,-3.488 2.016,-5.408 1.92,-1.952 5.344,-1.952 2.304,0 3.872,0.832 1.6,0.8 2.368,2.016 0.8,1.216 0.864,2.432 0.032,0.288 -0.224,0.512 -0.224,0.224 -0.512,0.224 h -1.408 q -0.32,0 -0.48,-0.128 -0.16,-0.16 -0.32,-0.544 -0.576,-1.568 -1.6,-2.208 -0.992,-0.672 -2.528,-0.672 -2.016,0 -3.2,1.248 -1.184,1.248 -1.28,3.808 l -0.032,1.12 0.032,1.12 q 0.096,2.56 1.28,3.808 1.184,1.248 3.2,1.248 1.568,0 2.56,-0.64 0.992,-0.672 1.568,-2.24 0.16,-0.384 0.32,-0.512 0.16,-0.16 0.48,-0.16 h 1.408 q 0.288,0 0.512,0.224 0.256,0.224 0.224,0.512 -0.064,1.184 -0.864,2.4 -0.768,1.216 -2.368,2.048 -1.568,0.832 -3.872,0.832 z" transform="translate(0 384.1305454545453) translate(407.8449999999998 34.79854545454563) scale(0.90909090909091) translate(-410.82025 -233.04)"></path>
      <path id="path199754" style="font-style: normal; font-weight: normal; font-size: 32px; line-height: 1; font-family: Rubik; font-variant-ligatures: none; text-align: center; text-anchor: middle; fill: rgb(255, 255, 255);" d="m 429.94925,250 q -0.32,0 -0.544,-0.192 -0.192,-0.224 -0.192,-0.544 v -21.248 q 0,-0.352 0.192,-0.544 0.224,-0.192 0.544,-0.192 h 1.376 q 0.32,0 0.512,0.224 0.224,0.192 0.224,0.512 v 11.168 l 6.4,-5.28 q 0.48,-0.352 0.672,-0.448 0.192,-0.096 0.608,-0.096 h 1.6 q 0.288,0 0.448,0.192 0.192,0.16 0.192,0.48 0,0.288 -0.352,0.608 l -7.488,6.144 8.288,7.936 q 0.352,0.352 0.352,0.608 0,0.288 -0.192,0.48 -0.16,0.192 -0.448,0.192 h -1.568 q -0.48,0 -0.704,-0.096 -0.192,-0.096 -0.576,-0.448 l -7.232,-6.848 v 6.656 q 0,0.32 -0.224,0.544 -0.192,0.192 -0.512,0.192 z" transform="translate(0 384.1305454545453) translate(427.29318181818167 29.56218181818204) scale(0.90909090909091) translate(-429.21325 -227.28)"></path>
      <path id="path199756" style="font-style: normal; font-weight: normal; font-size: 32px; line-height: 1; font-family: Rubik; font-variant-ligatures: none; text-align: center; text-anchor: middle; fill: rgb(255, 255, 255);" d="m 446.09875,230.224 q -0.32,0 -0.544,-0.192 -0.192,-0.224 -0.192,-0.544 v -1.664 q 0,-0.32 0.192,-0.544 0.224,-0.224 0.544,-0.224 h 1.888 q 0.32,0 0.544,0.224 0.224,0.224 0.224,0.544 v 1.664 q 0,0.32 -0.224,0.544 -0.224,0.192 -0.544,0.192 z m 0.256,19.776 q -0.32,0 -0.544,-0.192 -0.192,-0.224 -0.192,-0.544 v -15.168 q 0,-0.32 0.192,-0.512 0.224,-0.224 0.544,-0.224 h 1.408 q 0.32,0 0.512,0.224 0.224,0.192 0.224,0.512 v 15.168 q 0,0.32 -0.224,0.544 -0.192,0.192 -0.512,0.192 z" transform="translate(0 384.1305454545453) translate(444.70181818181806 29.358545454545634) scale(0.90909090909091) translate(-445.36275 -227.056)"></path>
      <path id="path199758" style="font-style: normal; font-weight: normal; font-size: 32px; line-height: 1; font-family: Rubik; font-variant-ligatures: none; text-align: center; text-anchor: middle; fill: rgb(255, 255, 255);" d="m 454.04225,250 q -0.32,0 -0.544,-0.192 -0.192,-0.224 -0.192,-0.544 v -15.168 q 0,-0.32 0.192,-0.512 0.224,-0.224 0.544,-0.224 h 1.376 q 0.352,0 0.544,0.192 0.192,0.192 0.192,0.544 v 1.408 q 0.96,-1.184 2.208,-1.824 1.28,-0.64 3.168,-0.64 3.072,0 4.768,1.984 1.696,1.952 1.696,5.184 v 9.056 q 0,0.32 -0.224,0.544 -0.192,0.192 -0.512,0.192 h -1.472 q -0.32,0 -0.544,-0.192 -0.192,-0.224 -0.192,-0.544 V 240.4 q 0,-2.304 -1.12,-3.584 -1.12,-1.28 -3.2,-1.28 -2.048,0 -3.264,1.312 -1.216,1.28 -1.216,3.552 v 8.864 q 0,0.32 -0.224,0.544 -0.192,0.192 -0.512,0.192 z" transform="translate(0 384.1305454545453) translate(454.6504545454544 34.79854545454563) scale(0.90909090909091) translate(-453.30625 -233.04)"></path>
      <path id="path199760" style="font-style: normal; font-weight: normal; font-size: 32px; line-height: 1; font-family: Rubik; font-variant-ligatures: none; text-align: center; text-anchor: middle; fill: rgb(255, 255, 255);" d="m 479.37075,257.04 q -2.656,0 -4.256,-0.896 -1.6,-0.896 -2.272,-2.048 -0.64,-1.152 -0.64,-1.984 0,-0.288 0.224,-0.512 0.224,-0.192 0.512,-0.192 h 1.408 q 0.288,0 0.48,0.128 0.192,0.16 0.32,0.544 0.896,2.56 4.064,2.56 2.4,0 3.552,-1.024 1.152,-1.024 1.152,-3.616 v -2.208 q -1.856,2.368 -5.184,2.368 -3.392,0 -5.088,-2.176 -1.664,-2.176 -1.76,-5.504 l -0.032,-0.896 0.032,-0.864 q 0.096,-3.296 1.76,-5.472 1.696,-2.208 5.088,-2.208 3.36,0 5.248,2.464 v -1.376 q 0,-0.32 0.192,-0.544 0.224,-0.224 0.544,-0.224 h 1.376 q 0.32,0 0.512,0.224 0.224,0.224 0.224,0.544 v 15.52 q 0,7.392 -7.456,7.392 z m -0.064,-9.376 q 2.24,0 3.36,-1.44 1.152,-1.472 1.248,-3.52 0.032,-0.288 0.032,-1.12 0,-0.8 -0.032,-1.088 -0.096,-2.048 -1.248,-3.488 -1.12,-1.472 -3.36,-1.472 -2.304,0 -3.36,1.472 -1.024,1.44 -1.12,3.744 l -0.032,0.832 0.032,0.864 q 0.096,2.304 1.12,3.776 1.056,1.44 3.36,1.44 z" transform="translate(0 384.1305454545453) translate(474.23636363636354 34.79854545454563) scale(0.90909090909091) translate(-471.85075 -233.04)"></path>
      <path id="path199762" style="font-style: normal; font-weight: normal; font-size: 32px; line-height: 1; font-family: Rubik; font-variant-ligatures: none; text-align: center; text-anchor: middle; fill: rgb(255, 255, 255);" d="m 500.29225,250 q -0.32,0 -0.544,-0.192 -0.192,-0.224 -0.192,-0.544 v -15.168 q 0,-0.32 0.192,-0.512 0.224,-0.224 0.544,-0.224 h 1.344 q 0.32,0 0.512,0.224 0.192,0.192 0.192,0.512 v 1.088 q 1.728,-2.144 4.672,-2.144 3.52,0 4.992,2.944 0.768,-1.344 2.176,-2.144 1.44,-0.8 3.2,-0.8 2.624,0 4.288,1.792 1.664,1.792 1.664,5.184 v 9.248 q 0,0.32 -0.224,0.544 -0.192,0.192 -0.512,0.192 h -1.376 q -0.32,0 -0.544,-0.192 -0.192,-0.224 -0.192,-0.544 v -8.96 q 0,-2.56 -1.056,-3.648 -1.056,-1.12 -2.784,-1.12 -1.536,0 -2.656,1.152 -1.088,1.12 -1.088,3.616 v 8.96 q 0,0.32 -0.224,0.544 -0.192,0.192 -0.512,0.192 h -1.408 q -0.32,0 -0.544,-0.192 -0.192,-0.224 -0.192,-0.544 v -8.96 q 0,-2.528 -1.12,-3.648 -1.088,-1.12 -2.72,-1.12 -1.536,0 -2.656,1.12 -1.088,1.12 -1.088,3.616 v 8.992 q 0,0.32 -0.224,0.544 -0.192,0.192 -0.512,0.192 z" transform="translate(0 384.1305454545453) translate(502.15045454545447 34.79854545454563) scale(0.90909090909091) translate(-499.55625 -233.04)"></path>
      <path id="path199764" style="font-style: normal; font-weight: normal; font-size: 32px; line-height: 1; font-family: Rubik; font-variant-ligatures: none; text-align: center; text-anchor: middle; fill: rgb(255, 255, 255);" d="m 532.60175,250.32 q -1.568,0 -2.912,-0.64 -1.312,-0.64 -2.112,-1.728 -0.768,-1.12 -0.768,-2.464 0,-2.112 1.728,-3.456 1.728,-1.344 4.704,-1.792 l 4.8,-0.672 v -0.928 q 0,-3.296 -3.808,-3.296 -1.472,0 -2.368,0.608 -0.896,0.576 -1.312,1.376 -0.128,0.32 -0.288,0.448 -0.128,0.096 -0.384,0.096 h -1.248 q -0.288,0 -0.512,-0.192 -0.192,-0.224 -0.192,-0.512 0,-0.736 0.672,-1.696 0.704,-0.992 2.144,-1.696 1.44,-0.736 3.52,-0.736 3.584,0 5.12,1.664 1.568,1.664 1.568,4.16 v 10.4 q 0,0.32 -0.224,0.544 -0.192,0.192 -0.512,0.192 h -1.408 q -0.32,0 -0.512,-0.192 -0.192,-0.224 -0.192,-0.544 v -1.408 q -0.704,1.056 -2.048,1.76 -1.344,0.704 -3.456,0.704 z m 0.64,-2.336 q 2.112,0 3.456,-1.376 1.344,-1.376 1.344,-4 v -0.896 l -3.744,0.544 q -2.304,0.32 -3.488,1.088 -1.184,0.768 -1.184,1.92 0,1.312 1.056,2.016 1.088,0.704 2.56,0.704 z" transform="translate(0 384.1305454545453) translate(529.6536363636365 34.79854545454563) scale(0.90909090909091) translate(-526.80975 -233.04)"></path>
      <path id="path199766" style="font-style: normal; font-weight: normal; font-size: 32px; line-height: 1; font-family: Rubik; font-variant-ligatures: none; text-align: center; text-anchor: middle; fill: rgb(255, 255, 255);" d="m 551.69875,250.32 q -3.36,0 -5.056,-2.176 -1.664,-2.176 -1.792,-5.504 l -0.032,-0.96 0.032,-0.96 q 0.128,-3.296 1.824,-5.472 1.696,-2.208 5.024,-2.208 3.328,0 5.184,2.368 v -7.392 q 0,-0.32 0.192,-0.512 0.224,-0.224 0.544,-0.224 h 1.44 q 0.32,0 0.512,0.224 0.224,0.192 0.224,0.512 v 21.248 q 0,0.32 -0.224,0.544 -0.192,0.192 -0.512,0.192 h -1.376 q -0.32,0 -0.512,-0.192 -0.192,-0.224 -0.192,-0.544 v -1.376 q -1.824,2.432 -5.28,2.432 z m 0.608,-2.496 q 2.24,0 3.36,-1.472 1.12,-1.504 1.216,-3.552 0.032,-0.352 0.032,-1.216 0,-0.896 -0.032,-1.248 -0.064,-1.952 -1.248,-3.36 -1.152,-1.44 -3.328,-1.44 -2.304,0 -3.36,1.44 -1.056,1.44 -1.152,3.776 l -0.032,0.928 q 0,6.144 4.544,6.144 z" transform="translate(0 384.1305454545453) translate(548.7527272727274 29.56218181818204) scale(0.90909090909091) translate(-544.81875 -227.28)"></path>
      <path id="path199768" style="font-style: normal; font-weight: normal; font-size: 32px; line-height: 1; font-family: Rubik; font-variant-ligatures: none; text-align: center; text-anchor: middle; fill: rgb(255, 255, 255);" d="m 571.21075,250.32 q -3.264,0 -5.216,-2.016 -1.952,-2.048 -2.144,-5.568 l -0.032,-1.088 0.032,-1.056 q 0.192,-3.456 2.144,-5.504 1.952,-2.048 5.216,-2.048 3.52,0 5.44,2.24 1.952,2.24 1.952,6.08 v 0.576 q 0,0.32 -0.224,0.544 -0.192,0.192 -0.512,0.192 h -11.104 v 0.288 q 0.096,2.08 1.28,3.552 1.184,1.472 3.136,1.472 1.504,0 2.432,-0.576 0.96,-0.608 1.44,-1.248 0.288,-0.384 0.448,-0.448 0.16,-0.096 0.544,-0.096 h 1.408 q 0.288,0 0.48,0.16 0.224,0.16 0.224,0.416 0,0.704 -0.864,1.696 -0.864,0.992 -2.464,1.728 -1.568,0.704 -3.616,0.704 z m 4.48,-9.824 V 240.4 q 0,-2.24 -1.216,-3.648 -1.216,-1.408 -3.264,-1.408 -2.08,0 -3.264,1.408 -1.184,1.408 -1.184,3.648 v 0.096 z" transform="translate(0 384.1305454545453) translate(568.7527272727274 34.79854545454563) scale(0.90909090909091) translate(-563.81875 -233.04)"></path>
      <path id="path199770" style="font-style: normal; font-weight: normal; font-size: 32px; line-height: 1; font-family: Rubik; font-variant-ligatures: none; text-align: center; text-anchor: middle; fill: rgb(255, 255, 255);" d="m 596.96075,250.32 q -3.264,0 -5.216,-2.016 -1.952,-2.048 -2.144,-5.568 l -0.032,-1.088 0.032,-1.056 q 0.192,-3.456 2.144,-5.504 1.952,-2.048 5.216,-2.048 3.52,0 5.44,2.24 1.952,2.24 1.952,6.08 v 0.576 q 0,0.32 -0.224,0.544 -0.192,0.192 -0.512,0.192 h -11.104 v 0.288 q 0.096,2.08 1.28,3.552 1.184,1.472 3.136,1.472 1.504,0 2.432,-0.576 0.96,-0.608 1.44,-1.248 0.288,-0.384 0.448,-0.448 0.16,-0.096 0.544,-0.096 h 1.408 q 0.288,0 0.48,0.16 0.224,0.16 0.224,0.416 0,0.704 -0.864,1.696 -0.864,0.992 -2.464,1.728 -1.568,0.704 -3.616,0.704 z m 4.48,-9.824 V 240.4 q 0,-2.24 -1.216,-3.648 -1.216,-1.408 -3.264,-1.408 -2.08,0 -3.264,1.408 -1.184,1.408 -1.184,3.648 v 0.096 z" transform="translate(0 384.1305454545453) translate(594.8890909090911 34.79854545454563) scale(0.90909090909091) translate(-589.56875 -233.04)"></path>
      <path id="path199772" style="font-style: normal; font-weight: normal; font-size: 32px; line-height: 1; font-family: Rubik; font-variant-ligatures: none; text-align: center; text-anchor: middle; fill: rgb(255, 255, 255);" d="m 612.85175,250.32 q -1.568,0 -2.912,-0.64 -1.312,-0.64 -2.112,-1.728 -0.768,-1.12 -0.768,-2.464 0,-2.112 1.728,-3.456 1.728,-1.344 4.704,-1.792 l 4.8,-0.672 v -0.928 q 0,-3.296 -3.808,-3.296 -1.472,0 -2.368,0.608 -0.896,0.576 -1.312,1.376 -0.128,0.32 -0.288,0.448 -0.128,0.096 -0.384,0.096 h -1.248 q -0.288,0 -0.512,-0.192 -0.192,-0.224 -0.192,-0.512 0,-0.736 0.672,-1.696 0.704,-0.992 2.144,-1.696 1.44,-0.736 3.52,-0.736 3.584,0 5.12,1.664 1.568,1.664 1.568,4.16 v 10.4 q 0,0.32 -0.224,0.544 -0.192,0.192 -0.512,0.192 h -1.408 q -0.32,0 -0.512,-0.192 -0.192,-0.224 -0.192,-0.544 v -1.408 q -0.704,1.056 -2.048,1.76 -1.344,0.704 -3.456,0.704 z m 0.64,-2.336 q 2.112,0 3.456,-1.376 1.344,-1.376 1.344,-4 v -0.896 l -3.744,0.544 q -2.304,0.32 -3.488,1.088 -1.184,0.768 -1.184,1.92 0,1.312 1.056,2.016 1.088,0.704 2.56,0.704 z" transform="translate(0 384.1305454545453) translate(613.5172727272729 34.79854545454563) scale(0.90909090909091) translate(-607.05975 -233.04)"></path>
      <path id="path199774" style="font-style: normal; font-weight: normal; font-size: 32px; line-height: 1; font-family: Rubik; font-variant-ligatures: none; text-align: center; text-anchor: middle; fill: rgb(255, 255, 255);" d="m 631.56475,250.32 q -2.208,0 -3.744,-0.704 -1.504,-0.736 -2.24,-1.664 -0.736,-0.928 -0.736,-1.536 0,-0.32 0.224,-0.48 0.224,-0.192 0.48,-0.192 h 1.344 q 0.192,0 0.288,0.064 0.128,0.064 0.32,0.288 0.736,0.896 1.632,1.408 0.928,0.512 2.464,0.512 1.728,0 2.752,-0.64 1.056,-0.64 1.056,-1.856 0,-0.8 -0.448,-1.28 -0.448,-0.48 -1.504,-0.864 -1.024,-0.384 -3.072,-0.832 -2.784,-0.608 -3.936,-1.76 -1.152,-1.152 -1.152,-2.976 0,-1.184 0.704,-2.272 0.704,-1.12 2.08,-1.792 1.408,-0.704 3.328,-0.704 2.016,0 3.424,0.672 1.44,0.672 2.144,1.568 0.736,0.896 0.736,1.504 0,0.288 -0.224,0.48 -0.192,0.192 -0.48,0.192 h -1.216 q -0.448,0 -0.64,-0.352 -0.544,-0.608 -0.928,-0.928 -0.352,-0.352 -1.056,-0.576 -0.704,-0.256 -1.76,-0.256 -1.568,0 -2.4,0.672 -0.832,0.64 -0.832,1.728 0,0.672 0.352,1.152 0.352,0.448 1.344,0.864 0.992,0.384 2.944,0.8 3.04,0.64 4.288,1.824 1.28,1.184 1.28,3.04 0,1.376 -0.8,2.496 -0.768,1.12 -2.336,1.76 -1.536,0.64 -3.68,0.64 z" transform="translate(0 384.1305454545453) translate(632.4127272727275 34.79854545454563) scale(0.90909090909091) translate(-624.84475 -233.04)"></path>
      <path id="path199776" style="font-style: normal; font-weight: normal; font-size: 32px; line-height: 1; font-family: Rubik; font-variant-ligatures: none; text-align: center; text-anchor: middle; fill: rgb(255, 255, 255);" d="m 644.46825,256.08 q -0.288,0 -0.48,-0.192 -0.192,-0.192 -0.192,-0.448 0,-0.096 0.16,-0.576 l 2.496,-5.856 -6.112,-14.432 q -0.192,-0.384 -0.192,-0.544 0.032,-0.288 0.224,-0.48 0.192,-0.192 0.448,-0.192 h 1.472 q 0.512,0 0.768,0.512 l 4.928,11.776 5.056,-11.776 q 0.256,-0.512 0.768,-0.512 h 1.44 q 0.256,0 0.448,0.192 0.192,0.192 0.192,0.448 0,0.224 -0.16,0.576 l -9.056,20.992 q -0.16,0.256 -0.352,0.384 -0.16,0.128 -0.448,0.128 z" transform="translate(0 384.1305454545453) translate(649.052272727273 35.08945454545474) scale(0.90909090909091) translate(-640.14825 -233.36)"></path>
    </g>
  </g>
</svg>
